<?xml version="1.0" encoding="utf-8"?>
<!-- Generator: Adobe Illustrator 21.1.0, SVG Export Plug-In . SVG Version: 6.00 Build 0)  -->
<svg version="1.1" id="Layer_1" xmlns="http://www.w3.org/2000/svg" xmlns:xlink="http://www.w3.org/1999/xlink" x="0px" y="0px"
	 viewBox="0 0 78.4 46.1" style="enable-background:new 0 0 78.4 46.1;" xml:space="preserve">
<style type="text/css">
	.st0{fill-rule:evenodd;clip-rule:evenodd;fill:#231F20;}
</style>
<g>
	<path class="st0" d="M6.2,46c0.1-0.3,0.3-0.6,0.4-0.9c1.6-3.3,3.1-6.6,4.7-9.8c0.4-0.8,0.3-1.4,0-2.1c-1.6-3.2-3.1-6.5-4.7-9.7
		c-0.1-0.3-0.3-0.6-0.3-1c0.2,0.2,0.3,0.4,0.5,0.6c2.1,3.1,4.2,6.2,6.3,9.3c0.4,0.6,0.9,0.9,1.6,0.9c3.2,0.2,6.4,0.5,9.6,0.7
		c0.9,0.1,1.8,0.2,2.8,0.4c-2.8,0.2-5.5,0.4-8.3,0.6c-1.4,0.1-2.8,0.2-4.2,0.3c-0.6,0-1,0.3-1.4,0.8c-2.1,3.1-4.2,6.2-6.3,9.3
		c-0.2,0.3-0.3,0.5-0.5,0.7C6.3,46.1,6.2,46,6.2,46z"/>
	<path class="st0" d="M72.2,22.5c-0.2,0.5-0.5,1-0.7,1.6c-1.5,3.1-3,6.2-4.5,9.3c-0.3,0.6-0.3,1.1,0,1.6c1.6,3.3,3.2,6.7,4.8,10
		c0.1,0.3,0.3,0.6,0.3,1c-0.2-0.2-0.4-0.4-0.5-0.6c-2.1-3.1-4.2-6.1-6.3-9.3c-0.4-0.6-0.9-0.9-1.6-0.9c-3.9-0.3-7.8-0.6-11.7-0.9
		c-0.2,0-0.5,0-0.7-0.2c1.8-0.1,3.7-0.3,5.5-0.4c2.3-0.2,4.6-0.4,7-0.5c0.7,0,1-0.3,1.4-0.8c2-3,4-5.9,6.1-8.9
		c0.2-0.4,0.5-0.7,0.7-1.1C72.1,22.4,72.1,22.5,72.2,22.5z"/>
	<path class="st0" d="M33,0.1c-0.2,0.4-0.3,0.7-0.5,1.1c-1.6,3.3-3.1,6.6-4.7,9.8c-0.3,0.5-0.3,0.9,0,1.4c1.6,3.4,3.2,6.7,4.9,10.1
		c0.2,0.3,0.3,0.7,0.3,1.1c-0.4-0.6-0.8-1.2-1.2-1.8c-1.9-2.7-3.8-5.5-5.6-8.2c-0.4-0.6-0.9-0.9-1.7-1c-3.1-0.2-6.2-0.5-9.2-0.7
		c-0.9-0.1-1.8-0.2-2.7-0.3c3.5-0.3,7-0.6,10.5-0.7c1.7-0.1,2.8-0.6,3.7-2.1c1.7-2.8,3.7-5.5,5.5-8.2c0.2-0.2,0.3-0.4,0.5-0.7
		C32.9,0.1,32.9,0.1,33,0.1z"/>
	<path class="st0" d="M65.9,11.7c-2.7,0.2-5.3,0.4-7.9,0.6c-1.4,0.1-2.9,0.3-4.3,0.3c-0.6,0-1,0.3-1.3,0.8c-2.1,3.1-4.2,6.2-6.4,9.3
		c-0.2,0.3-0.4,0.6-0.7,0.8c0.1-0.3,0.3-0.7,0.4-1c1.6-3.4,3.2-6.7,4.8-10.1c0.3-0.5,0.3-1,0-1.5c-1.6-3.3-3.2-6.5-4.7-9.8
		c-0.2-0.3-0.3-0.7-0.4-1.1c0.2,0.2,0.3,0.4,0.5,0.6c2.1,3.1,4.2,6.2,6.3,9.2c0.4,0.6,0.8,0.9,1.5,0.9
		C57.8,11.1,61.8,11.4,65.9,11.7z"/>
</g>
</svg>
